# xmcd
#
# Track frame offsets:
#	150
#	14327
#	26933
#	36430
#	54592
#	69673
#	82030
#	95578
#	110390
#	124999
#	139252
#	156249
#
# Disc length: 2271 seconds
# Revision: 2
# Processed by: cddbd v1.5.2PL0 Copyright (c) Steve Scherf et al.
# Submitted via: dBpowerAMP V12.0
#
DISCID=ae08dd0c
DTITLE=Barbara Dex - Only One Me
DYEAR=2008
DGENRE=Country
TTITLE0=Only One
TTITLE1=Book Of Love
TTITLE2=I Won't Be Home Tonight
TTITLE3=Sometimes It's Worth The Fall
TTITLE4=This Could Be Love
TTITLE5=Night Light
TTITLE6=Easy Mistake To Make
TTITLE7=Disappointed Again
TTITLE8=Photograph
TTITLE9=I Will Wait
TTITLE10=Forget About Love
TTITLE11=Thinking Of You
EXTD=
EXTT0=
EXTT1=
EXTT2=
EXTT3=
EXTT4=
EXTT5=
EXTT6=
EXTT7=
EXTT8=
EXTT9=
EXTT10=
EXTT11=
PLAYORDER=
